<svg xmlns="http://www.w3.org/2000/svg" width="88" height="88" viewBox="0 0 88 88" fill="none">
<mask id="mask0_41_1343" style="mask-type:alpha" maskUnits="userSpaceOnUse" x="0" y="0" width="88" height="88">
<circle cx="43.8557" cy="43.8557" r="43.8557" fill="#D9D9D9"/>
</mask>
<g mask="url(#mask0_41_1343)">
<path d="M67.8981 80.0628C67.6968 80.2066 67.4667 80.3504 67.2654 80.4942C67.0353 80.638 66.834 80.7818 66.604 80.8968C66.4027 81.0119 66.2301 81.1269 66.0288 81.2419C66 81.2707 65.9713 81.2707 65.9425 81.2995C65.2811 81.7021 64.5909 82.0759 63.9007 82.421C63.6994 82.5361 63.4693 82.6511 63.268 82.7374C63.268 82.7374 63.2393 82.7661 63.2105 82.7661C62.9804 82.8811 62.7504 82.9962 62.5203 83.1112C62.0602 83.3413 61.5713 83.5426 61.1111 83.7439C60.8811 83.8589 60.6223 83.9452 60.3922 84.0315C60.1621 84.1178 59.9033 84.2328 59.6732 84.3191C59.4432 84.4053 59.1844 84.5204 58.9543 84.6066C58.9543 84.6066 58.9543 84.6066 58.9255 84.6066C58.6955 84.6929 58.4366 84.7792 58.2066 84.8655C57.6889 85.038 57.1425 85.2106 56.6249 85.3831C56.4523 85.4406 56.251 85.4981 56.0785 85.5557C55.5321 85.7282 54.9857 85.872 54.4393 85.987C54.2379 86.0445 54.0366 86.0733 53.8066 86.1308C53.2889 86.2459 52.7425 86.3609 52.2249 86.4759C52.1098 86.5047 52.0236 86.5047 51.9085 86.5334C51.736 86.5622 51.5347 86.591 51.3621 86.6197C51.1033 86.6485 50.8732 86.706 50.6144 86.7347C50.4994 86.7635 50.3844 86.7635 50.2693 86.7923C50.1255 86.821 49.953 86.8498 49.7804 86.8498C49.3203 86.9073 48.8314 86.9648 48.3713 87.0223C48.2275 87.0511 48.0549 87.0511 47.9112 87.0798H47.8824C47.6811 87.1086 47.4798 87.1086 47.2785 87.1374C47.0772 87.1661 46.8759 87.1661 46.6746 87.1661C46.5595 87.1661 46.4157 87.1949 46.3007 87.1949C46.0706 87.1949 45.8693 87.2236 45.668 87.2236C45.3804 87.2236 45.1216 87.2524 44.834 87.2524C44.5464 87.2524 44.2876 87.2524 44 87.2524C43.7987 87.2524 43.5974 87.2524 43.3961 87.2524C31.2602 87.0798 20.3608 81.9321 12.5674 73.7648C12.5674 73.7648 12.5674 73.7361 12.5386 73.7361C11.6759 72.9596 12.4236 68.8184 15.9033 66.2014C20.2746 62.8942 30.7425 60.8236 30.7425 60.8236C30.7425 60.8236 34.7974 60.1622 49.8379 63.2968C58.6379 65.1374 65.3386 67.8119 69.0772 75.0589C69.8536 76.5544 70.6301 78.855 67.8981 80.0628Z" fill="white"/>
<path d="M49.9242 62.9804C55.4458 64.102 61.3412 65.3098 65.885 68.9621C67.4092 70.1987 68.4157 72.0105 69.2497 73.7647C69.6523 74.6275 70.055 75.519 70.3713 76.468C70.5438 77.1007 70.8027 77.8197 70.6589 78.5674C70.6301 78.7687 70.4576 79.0275 70.3138 79.1713C69.6523 79.8327 68.9334 80.2353 68.2144 80.753C63.987 83.6863 59.1268 85.7569 54.0942 86.8497C42.8785 89.2942 30.7425 87.3961 20.8785 81.5007C17.6 79.5164 14.5804 77.1007 11.9922 74.2536C11.7046 73.9085 11.7046 73.3334 11.7046 72.9595C11.7334 72.0968 11.9634 71.2628 12.251 70.4863C12.9412 68.7033 13.8327 66.9203 15.3569 65.6837C16.4497 64.936 17.6288 64.3033 18.8366 63.7857C22.6327 62.1752 26.6301 61.0536 30.7425 60.5935C31.0876 60.5647 31.1451 61.0536 30.8 61.1112C26.8602 61.9164 22.9491 63.1242 19.2968 64.7634C17.9739 65.4249 16.5648 66 15.5007 67.0353C14.4942 68.1281 13.7752 69.4798 13.2 70.8602C12.8262 71.6942 12.5674 73.017 12.6824 73.6785C14.4942 75.8353 16.6223 77.7334 18.9229 79.3726C31.519 88.1726 50.6432 88.7478 64.0445 81.4144C65.2523 80.753 66.4314 80.0053 67.553 79.2288C68.0994 78.8549 68.6746 78.5386 69.1059 78.1072C69.1347 78.0785 69.1059 78.1072 69.1059 78.136C69.1059 78.1648 69.0772 78.1935 69.0772 78.1935C69.1059 77.8484 68.9909 77.3883 68.8471 76.9281C68.3295 75.2602 67.4955 73.5059 66.604 71.9817C65.1948 69.7098 62.8079 68.2719 60.3922 67.1216C58.7242 66.3451 56.97 65.7412 55.187 65.1661C53.404 64.5909 51.5922 64.102 49.7804 63.6706C49.3203 63.5556 49.4641 62.8942 49.9242 62.9804Z" fill="black"/>
<path d="M67.8982 80.0628C67.6969 80.2066 67.4668 80.3504 67.2655 80.4942C67.0355 80.638 66.8342 80.7818 66.6041 80.8968C66.4028 81.0119 66.2302 81.1269 66.0289 81.2419C66.0002 81.2707 65.9714 81.2707 65.9426 81.2995C65.2812 81.7021 64.591 82.0759 63.9008 82.421C63.6995 82.5361 63.4694 82.6511 63.2681 82.7374C63.2681 82.7374 63.2394 82.7661 63.2106 82.7661C62.9806 82.8811 62.7505 82.9962 62.5204 83.1112C62.0603 83.3413 61.5714 83.5426 61.1113 83.7439C60.8812 83.8589 60.6224 83.9452 60.3923 84.0315C60.1623 84.1178 59.9034 84.2328 59.6734 84.3191C59.4433 84.4053 59.1845 84.5204 58.9544 84.6066C58.9544 84.6066 58.9544 84.6066 58.9257 84.6066C58.6956 84.6929 58.4368 84.7792 58.2067 84.8655C57.6891 85.038 57.1426 85.2106 56.625 85.3831C56.4525 85.4406 56.2511 85.4981 56.0786 85.5557C55.5322 85.7282 54.9858 85.872 54.4394 85.987C54.2381 86.0445 54.0368 86.0733 53.8067 86.1308C53.2891 86.2459 52.7427 86.3609 52.225 86.4759C52.11 86.5047 52.0237 86.5047 51.9087 86.5334C51.7361 86.5622 51.5348 86.591 51.3623 86.6197C51.1034 86.6485 50.8734 86.706 50.6145 86.7347C50.4995 86.7635 50.3845 86.7635 50.2694 86.7923C50.1257 86.821 49.9531 86.8498 49.7806 86.8498C49.3204 86.9073 48.8315 86.9648 48.3714 87.0223C48.2276 87.0511 48.0551 87.0511 47.9113 87.0798H47.8825C47.6812 87.1086 47.4799 87.1086 47.2786 87.1374C47.0773 87.1661 46.876 87.1661 46.6747 87.1661C46.5596 87.1661 46.4159 87.1949 46.3008 87.1949C46.0708 87.1949 45.8694 87.2236 45.6681 87.2236C45.3806 87.2236 45.1217 87.2524 44.8342 87.2524C44.5466 87.2524 44.2878 87.2524 44.0002 87.2524C43.7989 87.2524 43.5976 87.2524 43.3962 87.2524C31.2603 87.0798 20.361 81.9321 12.5675 73.7648C12.5675 73.7648 12.5675 73.7361 12.5387 73.7361C11.676 73.3047 12.2799 68.387 15.7596 65.77C20.1309 62.4629 30.7427 60.8236 30.7427 60.8236C30.7427 60.8236 34.7976 60.1622 49.8381 63.2968C57.8904 64.9648 65.3675 67.6106 68.0995 72.2119C68.8472 73.4772 70.659 75.9504 70.3427 77.8197C70.1701 78.8263 68.761 79.2864 67.8982 80.0628Z" fill="white"/>
<path d="M49.9244 62.9805C55.2734 64.1309 61.5427 65.1374 65.9427 68.6171C68.761 70.8603 69.6812 74.4263 71.0328 77.6472C71.1479 77.8485 71.0328 78.0498 70.9466 78.2224C70.1701 79.4302 68.9047 80.2354 67.7544 81.0407C64.3897 83.3126 60.6224 85.0381 56.74 86.1596C43.7413 89.927 29.0459 87.5688 18.0315 79.6603C15.8172 78.0786 13.7753 76.2668 11.9636 74.2538L12.1074 74.3688C11.6472 74.0524 11.5322 73.4773 11.5322 72.9884C11.676 70.9753 12.5675 69.1348 13.459 67.3518C13.7466 66.8341 14.0629 66.259 14.523 65.8564C18.7505 61.974 25.71 60.4786 31.2603 59.9609C31.6054 59.9322 31.6342 60.4211 31.3178 60.4786C26.1701 61.4276 20.8211 62.6354 16.4498 65.6263C15.8747 66.0864 15.1845 66.5466 14.7819 67.1792C14.1204 68.2145 11.791 72.7008 12.6538 73.6211C18.6642 80.7819 27.6943 84.8943 36.8681 85.9871C45.8982 87.1949 55.4172 85.9583 63.4982 81.6734C64.6485 81.0694 65.7701 80.408 66.8341 79.6603C67.8119 78.9988 68.7897 78.3662 69.5374 77.4747L69.5087 77.5322L69.4799 78.0498C69.3936 76.9858 68.8472 75.9505 68.5021 74.9439C68.0995 73.9374 67.6681 72.8734 67.1505 71.9531C66.1152 70.0838 64.3322 68.7609 62.4629 67.7544C60.5361 66.7191 58.4368 65.9714 56.2799 65.3387C54.123 64.706 51.9662 64.1596 49.7518 63.6707C49.3204 63.5557 49.4642 62.8943 49.9244 62.9805Z" fill="black"/>
<path d="M16.3636 65.1373C16.3636 65.1373 17.8015 65.3099 19.7858 66.5177C23.4956 68.7896 29.3047 82.9099 19.1819 91.3648C19.1819 91.3648 17.3701 101.948 19.1819 103.961C19.1819 103.961 52.3113 105.629 66.6041 103.961C66.6041 103.961 68.5021 97.7491 67.5819 91.106C66.4315 82.6798 66.7766 73.8223 61.2263 66.2589C58.6956 62.8079 46.0132 59.8171 38.6799 59.8746C31.2603 59.9609 28.1832 60.7373 26.2276 61.2262C24.2433 61.7439 16.5073 63.6132 16.3636 65.1373Z" fill="black" stroke="black" stroke-width="5.1257" stroke-miterlimit="10" stroke-linecap="round" stroke-linejoin="round"/>
<path d="M17.2263 66.2877C20.706 63.0955 20.3034 65.7988 26.8315 64.7348C29.3335 64.3322 32.2956 62.2616 36.1204 62.3478C38.8812 62.4054 41.872 64.4759 45.4093 64.9361C48.2563 65.3099 51.6498 64.0158 55.0433 64.706C57.8903 65.3099 60.5361 67.8119 63.8145 68.7034" stroke="white" stroke-width="4" stroke-miterlimit="10" stroke-linecap="round" stroke-linejoin="round"/>
<path d="M17.4852 70.1126C21.5689 67.6681 20.7924 70.2276 27.263 69.3361C29.8225 68.991 32.8709 66.8629 36.6669 66.8916C39.4852 66.9204 42.5336 68.9622 46.0996 69.3073C49.0042 69.5949 52.3977 68.1858 55.8199 68.7609C58.7532 69.2786 61.4852 71.7518 64.7924 72.5282" stroke="white" stroke-width="4" stroke-miterlimit="10" stroke-linecap="round" stroke-linejoin="round"/>
<path d="M17.7439 73.9661C22.2302 72.1831 21.2524 74.5988 27.6655 73.9086C30.3112 73.621 33.4171 71.4929 37.2132 71.4929C40.089 71.4929 43.2237 73.506 46.7897 73.7936C49.7518 74.0236 53.174 72.4707 56.5962 72.9596C59.5871 73.391 62.4341 75.8066 65.7988 76.4681" stroke="white" stroke-width="4" stroke-miterlimit="10" stroke-linecap="round" stroke-linejoin="round"/>
<path d="M18.0027 77.8773C22.7478 76.6982 21.655 78.9701 28.0106 78.4525C30.7139 78.2224 33.906 76.1231 37.7021 76.0943C40.6642 76.0655 43.8851 78.0786 47.4511 78.2799C50.4995 78.4525 53.8929 76.7557 57.3727 77.1296C60.4498 77.4459 63.4406 79.8041 66.8341 80.3505" stroke="white" stroke-width="4" stroke-miterlimit="10" stroke-linecap="round" stroke-linejoin="round"/>
<path d="M18.2042 81.7884C23.1218 81.0982 21.9427 83.255 28.2983 82.9387C31.0878 82.7949 34.3663 80.6956 38.1911 80.6668C41.2107 80.638 44.5179 82.6799 48.1127 82.7949C51.2185 82.9099 54.6408 81.0982 58.1493 81.3282C61.3127 81.5583 64.4473 83.8302 67.8695 84.2041" stroke="white" stroke-width="4" stroke-miterlimit="10" stroke-linecap="round" stroke-linejoin="round"/>
<path d="M18.4053 85.6996C23.438 85.4121 22.2301 87.5114 28.5857 87.3676C31.4615 87.3101 34.8262 85.2395 38.651 85.2395C41.7569 85.2395 45.1216 87.2813 48.7451 87.3389C51.9373 87.3964 55.3883 85.4696 58.8968 85.5846C62.1464 85.6996 65.4249 87.8852 68.9046 88.0866" stroke="white" stroke-width="4" stroke-miterlimit="10" stroke-linecap="round" stroke-linejoin="round"/>
<path d="M18.6067 89.6394C23.7544 89.6969 22.489 91.7387 28.8446 91.7675C31.7779 91.7963 35.2864 89.7544 39.14 89.7832C42.3322 89.812 45.7832 91.8825 49.4067 91.8825C52.7139 91.9113 56.1649 89.8695 59.6734 89.8695C63.0381 89.8695 66.489 91.9401 69.94 91.9401" stroke="white" stroke-width="4" stroke-miterlimit="10" stroke-linecap="round" stroke-linejoin="round"/>
<path d="M52.6273 70.6299C52.0234 73.592 48.1122 75.375 41.5266 72.7005C34.6822 69.9397 31.7201 63.3541 30.9724 61.3985C35.0273 53.8064 32.209 48.5436 32.209 48.5436C41.5554 47.7384 49.7227 58.6665 49.7227 58.6665L50.9881 64.073C51.1031 64.5332 51.3332 64.9358 51.6783 65.2234C52.2822 66.2874 53.0011 68.7319 52.6273 70.6299Z" fill="white"/>
<path d="M30.8287 61.4849C31.3751 60.6509 31.7202 59.6731 31.9503 58.7241C32.3816 56.7398 32.5254 54.7267 32.5542 52.7136V51.9659C32.4679 51.2182 32.2091 50.4417 31.9215 49.7515C31.5477 48.8313 32.8993 48.2561 33.3307 49.1764C33.3882 49.2914 33.3882 49.4927 33.3882 49.6077C33.4745 53.5189 33.647 58.5515 31.1738 61.8012C31.0013 61.9738 30.6562 61.7149 30.8287 61.4849Z" fill="black"/>
<path d="M50.0391 58.6089C50.4704 58.8677 50.6142 59.2128 50.6717 59.5579C50.8443 60.2481 50.7868 60.9958 50.9593 61.7148C51.1031 62.405 51.5345 63.0664 51.6495 63.7854C51.7933 64.5331 52.2247 66.1148 52.3972 66.8913C52.4548 67.0638 52.3397 67.2651 52.1384 67.2939C52.0234 67.3226 51.9371 67.2939 51.8508 67.2364C51.477 66.92 51.3044 66.6037 51.0744 66.2011C50.7005 65.5109 50.4417 64.8782 50.2116 64.1017C50.0103 63.4115 50.0966 62.6638 49.924 61.9449C49.7802 61.2547 49.3776 60.5932 49.2338 59.8743C49.1476 59.5292 49.1188 59.1553 49.3776 58.724C49.5502 58.5514 49.8378 58.4939 50.0391 58.6089Z" fill="black"/>
<path d="M52.1098 66.2011C46.6169 65.9135 42.1307 64.188 37.7594 56.3945C41.4405 59.6442 45.783 60.8808 50.3555 61.456L50.9594 64.1017C51.0745 64.5618 51.7647 65.9135 52.1098 66.2011Z" fill="black"/>
<path d="M51.8798 65.1371C52.8576 66.9777 53.4327 69.2783 52.8288 71.3202C52.3687 72.7581 51.0458 73.8221 49.6079 74.2247C46.272 75.1162 42.4184 73.7071 39.4563 72.1254C35.804 70.0836 33.1007 66.6613 31.3752 62.9228C31.2602 62.6352 31.6628 62.4051 31.8354 62.6927C32.4393 63.9005 33.1295 65.0796 33.906 66.1437C34.6824 67.2365 35.5739 68.243 36.5805 69.1345C39.5138 71.7803 43.4824 73.4195 47.4511 73.4195C51.5347 73.3045 53.0877 71.1476 52.1386 67.179C51.9948 66.5463 51.7648 65.8849 51.4484 65.3385C51.2759 65.1084 51.7073 64.8496 51.8798 65.1371Z" fill="black"/>
<path d="M63.0091 30.5987C63.5267 33.0144 63.7855 34.9699 62.3764 41.4118C60.996 47.8248 64.3607 49.1477 56.3947 59.4144C53.145 63.6131 45.2653 62.434 38.881 58.0915C36.7241 56.6248 35.8039 52.8575 34.1934 50.183C32.928 48.0837 32.3529 50.2693 30.6849 48.4575C28.413 45.9843 25.681 41.0092 27.0326 32.2092C29.2182 17.9451 40.5202 16.2771 48.8888 17.8588C57.315 19.4693 61.6287 24.2431 63.0091 30.5987Z" fill="white"/>
<path d="M32.1228 51.0169C31.4614 49.8953 30.5986 48.9176 29.7934 47.8823C29.0169 46.8182 28.3843 45.6391 27.8666 44.4313C24.4444 36.0339 25.7673 24.2143 34.1647 19.2679C37.6444 17.2548 41.8431 16.7659 45.7542 17.0823C54.1228 17.6862 61.8013 21.5398 63.613 30.3973C64.5908 34.3084 63.2679 38.3346 62.5202 42.1594C62.1751 44.0574 62.4627 46.013 62.4339 47.9685C62.4052 49.9529 61.8588 51.9372 61.1111 53.7777C60.6509 55.043 59.8457 56.1646 59.0117 57.1999C57.6313 58.8679 56.2509 60.5646 54.4967 61.8587C54.0941 62.1463 53.3751 62.2901 52.8862 62.3476C51.5346 62.5489 50.2117 62.6064 48.8601 62.5202C43.5686 62.2901 37.9032 59.7306 35.7751 54.6117C35.6888 54.4104 35.9764 54.2666 36.0914 54.4391C38.8522 58.8104 43.9137 60.9672 48.9464 61.2548C50.4993 61.3411 52.081 61.3123 53.6052 60.996C54.3529 60.6221 55.0143 59.9607 55.647 59.3568C57.1999 57.8038 58.7816 56.1359 59.9032 54.2378C61.2548 51.6783 62.0026 48.8888 61.7725 45.9842C61.715 44.6901 61.6862 43.3385 61.945 42.0444C62.1751 40.7502 62.4627 39.5136 62.6352 38.1908C62.8078 36.9254 62.8941 35.6313 62.8941 34.3659C62.7503 30.6561 61.5424 26.8313 59.1843 23.9555C53.979 17.4849 41.6705 15.7881 34.7398 20.2169C30.3686 22.9202 28.3267 27.9816 27.6653 32.8993C26.6588 38.7947 26.9464 44.6038 31.6339 48.8888L33.0143 50.3267C33.5607 50.9594 32.583 51.7071 32.1228 51.0169Z" fill="black"/>
<path d="M35.5162 41.8717C35.5162 41.8717 34.6247 37.5579 30.426 38.0756C26.8024 38.5357 25.5371 47.2207 33.7619 49.6364" fill="white"/>
<path d="M33.3882 45.8693C32.7267 45.4954 32.2666 44.8627 32.2379 44.0863C32.2666 43.5111 32.3529 42.8497 32.2091 42.2745C32.1228 41.7281 31.5477 41.5843 31.1163 41.6131C30.6562 41.6993 30.3686 42.2745 30.2823 42.7346C30.2823 42.7634 30.2535 42.8497 30.2535 42.8784C30.2248 43.0222 29.9947 43.0222 29.9372 42.8784C29.5633 41.7569 30.3973 40.5203 31.6052 40.664C33.3019 40.7791 33.532 42.5621 33.2156 43.9137C33.0431 44.4889 33.2732 45.0065 33.5895 45.4954L33.647 45.5817C33.7908 45.7542 33.5607 45.9843 33.3882 45.8693Z" fill="black"/>
<path d="M56.3946 38.8234C56.826 40.8652 57.6312 42.7633 58.6378 44.5463C59.5293 46.7319 57.2286 48.8025 55.1868 48.7162C54.9567 48.7162 54.928 48.3999 55.1293 48.3424C56.4234 47.9398 57.6025 47.077 57.8038 45.7541C57.8901 45.3515 57.775 45.0064 57.5737 44.6613C56.6247 42.8783 56.0495 40.8365 56.1933 38.8234C56.1933 38.6796 56.3946 38.6796 56.3946 38.8234Z" fill="black"/>
<path d="M35.3725 41.9006C34.7111 40.2039 33.2732 38.5934 31.3464 38.6222C31.1738 38.5934 30.8862 38.6509 30.7137 38.6509C30.2248 38.6797 29.8222 38.8522 29.4483 39.1973C27.6078 41.0379 27.9241 44.2875 29.4196 46.3294C29.9372 47.0483 30.5987 47.681 31.3464 48.1986C32.0941 48.7163 32.9281 49.1189 33.8196 49.464C34.0209 49.5215 33.9346 49.8379 33.7333 49.8091C31.8065 49.4065 29.966 48.4575 28.7006 46.8758C26.7451 44.5176 26.3424 40.5777 28.6719 38.2771C29.1895 37.817 29.9085 37.4719 30.6274 37.4719C30.8575 37.4719 31.2026 37.4143 31.4326 37.4719C32.6405 37.5294 33.7908 38.1333 34.5385 39.0823C35.2 39.8875 35.5738 40.8653 35.6888 41.8431C35.6888 42.0156 35.43 42.0732 35.3725 41.9006Z" fill="black"/>
<path d="M53.5476 51.4771C53.5763 51.9372 53.2312 52.7425 52.5985 53.3176C49.3489 51.3333 47.8822 52.3686 47.8822 52.3686C46.7319 50.6144 46.9907 48.2274 49.7802 50.0392C51.707 51.3046 52.9149 51.5059 53.5476 51.4771Z" fill="black"/>
<path d="M52.5698 53.3464C51.8796 53.9503 50.8443 54.3242 49.4352 53.749C48.7737 53.4902 48.2561 52.9726 47.8535 52.3974C47.8822 52.3974 49.3201 51.3621 52.5698 53.3464Z" fill="white"/>
<path d="M54.094 51.3909C54.094 51.3909 52.8861 52.0524 49.7802 50.068C46.0704 47.6811 46.8182 52.685 49.4351 53.7491C52.1672 54.8706 53.5763 52.4262 53.5476 51.5059" stroke="black" stroke-width="3" stroke-miterlimit="10" stroke-linecap="round" stroke-linejoin="round"/>
<path d="M47.8824 52.3974C47.8824 52.3974 49.349 51.3621 52.5987 53.3464" stroke="black" stroke-width="3" stroke-miterlimit="10" stroke-linecap="round" stroke-linejoin="round"/>
<path d="M49.8953 35.7753C50.528 35.8615 51.0169 35.2001 50.7868 34.5674C50.6718 34.2223 50.4705 33.906 50.1541 33.7047C49.1763 33.1008 45.5241 33.0432 43.5973 34.4236C41.8718 35.689 47.0195 35.3727 49.8953 35.7753Z" fill="black"/>
<path d="M57.8613 36.0916C57.3437 36.0916 57.0273 35.4302 57.2862 34.8838C57.43 34.5962 57.6313 34.3373 57.9188 34.1936C58.8103 33.7622 61.1973 34.021 62.2613 35.4877C63.2103 36.7818 60.2483 36.0628 57.8613 36.0916Z" fill="black"/>
<path d="M48.8312 39.485C47.3646 38.8523 45.6966 39.0249 44.1724 39.37C43.9999 39.4275 43.8848 39.1974 44.0286 39.0824C45.3515 37.9896 47.8535 37.8458 48.9175 39.3412C49.0038 39.3987 48.9463 39.5138 48.8312 39.485Z" fill="black"/>
<path d="M60.1332 40.089C59.443 39.6001 58.4365 39.6864 57.6312 39.7727C57.3437 39.8014 57.0561 39.8589 56.7397 39.9452C56.6535 39.974 56.5672 39.8302 56.6247 39.7727L56.6822 39.7151C57.4012 38.9674 58.5227 38.7949 59.5005 39.1687C59.8456 39.3125 60.1907 39.5138 60.3633 39.9165C60.4495 40.0602 60.2482 40.204 60.1332 40.089Z" fill="black"/>
<path d="M65.3107 35.4012C66.6048 30.9724 64.3616 27.8953 62.7512 26.3999C62.0035 24.3868 60.7381 22.4025 58.725 20.8783C58.3224 20.562 57.8911 20.2744 57.4022 20.0155C56.9996 19.7855 56.5682 19.5842 56.1368 19.3829C52.3407 17.7437 46.2728 15.8169 40.2623 16.8521C37.9616 17.226 35.661 18.06 33.5041 19.4691C33.4754 19.4691 33.4754 19.4979 33.4754 19.4979C33.3028 19.6129 33.1303 19.728 32.9865 19.843C32.5839 19.3541 32.1237 18.9227 31.6061 18.5201C28.0113 15.8169 24.1002 16.277 21.3969 19.9005C18.6937 23.4953 18.2335 28.8731 21.8283 31.5763C22.9499 32.4103 24.2152 32.928 25.5094 33.1293C25.4806 33.2731 25.4806 33.4456 25.4518 33.5894C23.8701 47.7672 34.712 54.1515 33.878 49.694C33.6479 49.6077 33.5329 49.5214 33.5329 49.4639C25.5669 46.9332 26.8322 38.4208 30.427 37.9606C31.7211 37.7881 32.6701 38.1044 33.4179 38.5646C33.7054 38.8521 33.9643 39.111 34.2231 39.3698C34.9133 40.2325 35.5172 41.3254 35.5172 41.7567C35.546 41.4116 35.5747 41.009 35.661 40.6064C39.1407 43.1946 42.2754 42.2744 47.9695 33.1868C51.7368 27.1763 53.9799 25.9972 55.2166 26.1698C55.7054 26.3423 56.1656 26.7162 56.5969 27.3489C56.712 27.5214 56.827 27.694 56.9133 27.8665C59.444 27.809 60.6231 29.2757 61.227 30.7999C61.227 30.7999 61.227 30.7999 61.227 30.8286C61.7159 32.1227 61.7734 33.4456 61.8309 33.7907C61.8309 33.8482 61.8309 33.877 61.8597 33.877C61.8022 35.0273 61.6584 36.9829 61.6296 39.5136C61.6296 40.6639 61.7447 42.9646 61.6584 44.2874C61.6296 44.6901 61.6009 45.0927 61.5721 45.4665C61.5433 45.6678 61.5433 45.8691 61.5146 46.0417C61.4858 46.2142 61.4858 46.4156 61.4571 46.6169C61.4283 46.8469 61.3996 47.0482 61.3996 47.2783C61.9747 47.9685 62.8087 48.0835 63.4989 48.5437C63.6715 46.5881 63.1538 44.9489 62.9525 42.7345C63.125 43.4822 63.3551 44.2012 63.7002 44.9489C64.8505 47.4221 64.2179 49.2338 64.2179 49.2338L66.1159 49.3489C66.3172 48.8025 66.4897 47.7959 65.8858 46.4731C64.9656 44.4312 64.9081 43.4822 64.9081 43.4822C64.9081 43.4822 65.3969 45.1502 66.3172 46.2718C67.0362 47.192 67.3237 48.4286 67.0362 49.4064L67.7264 49.4639C69.7969 46.358 63.3839 41.9293 65.3107 35.4012ZM41.844 37.9031C39.6584 39.4848 37.8179 39.1685 36.6963 38.6796C36.725 38.6796 36.7538 38.6508 36.7538 38.6508C37.444 38.5933 38.1342 38.4495 38.7956 38.1907C41.959 37.0691 44.8924 34.1646 47.4806 31.4901C45.295 34.1933 43.1956 36.9254 41.844 37.9031Z" fill="black"/>
<path d="M82.8811 24.2431C100.337 57.8615 69.6523 95.7935 33.0719 86.5333C16.651 82.4497 3.45098 68.2144 0.718954 51.5059C-2.38693 34.8837 5.11895 17.0248 19.1529 7.62092C38.3922 -5.60784 65.051 -1.20784 78.8261 17.715C78.9124 17.8013 78.8837 17.9451 78.7686 18.0314C78.6824 18.1177 78.5386 18.0889 78.4523 17.9739C76.5543 15.5294 74.3974 13.315 72.0392 11.3307C68.1569 8.02354 63.6131 5.4353 58.8105 3.68105C34.366 -5.17646 7.53464 9.54772 2.18562 35.1137C-3.8536 63.7569 20.5046 90.1281 49.5503 86.1882C71.9529 83.3699 88.6039 62.6928 86.7634 40.2039C86.3608 34.7686 84.9229 29.3909 82.536 24.4445C82.4784 24.3582 82.5359 24.2431 82.6222 24.1856C82.7085 24.1281 82.8235 24.1569 82.8811 24.2431Z" fill="black"/>
</g>
</svg>