<svg xmlns="http://www.w3.org/2000/svg" width="23" height="13" viewBox="0 0 23 13" fill="none">
<path d="M17.75 10.6666H5.77079C3.46871 10.6666 1.60413 8.802 1.60413 6.49992C1.60413 4.19784 3.46871 2.33325 5.77079 2.33325H18.7916C20.2291 2.33325 21.3958 3.49992 21.3958 4.93742C21.3958 6.37492 20.2291 7.54158 18.7916 7.54158H7.85413C7.28121 7.54158 6.81246 7.07283 6.81246 6.49992C6.81246 5.927 7.28121 5.45825 7.85413 5.45825H17.75V3.89575H7.85413C6.41663 3.89575 5.24996 5.06242 5.24996 6.49992C5.24996 7.93742 6.41663 9.10408 7.85413 9.10408H18.7916C21.0937 9.10408 22.9583 7.2395 22.9583 4.93742C22.9583 2.63534 21.0937 0.770752 18.7916 0.770752H5.77079C2.60413 0.770752 0.041626 3.33325 0.041626 6.49992C0.041626 9.66658 2.60413 12.2291 5.77079 12.2291H17.75V10.6666Z" fill="black"/>
</svg>