<svg xmlns="http://www.w3.org/2000/svg" width="61" height="61" viewBox="0 0 61 61" fill="none">
<path d="M35.5834 12.2V17.7917H43.2084V25.4167H46.7921C46.9446 26.4079 47.0209 27.4246 47.0209 28.4667C47.0209 34.9988 41.6834 43.1829 31.3642 52.6379L30.5 53.4004L29.6359 52.6125C19.3167 43.1829 13.9792 34.9988 13.9792 28.4667C13.9792 18.7067 21.1467 11.4375 30.5 11.4375C32.2792 11.4375 33.9821 11.6917 35.5834 12.2Z" fill="black" fill-opacity="0.3"/>
<path d="M50.8334 2.5415V10.1665H58.4584V15.2498H50.8334V22.8748H45.75V15.2498H38.125V10.1665H45.75V2.5415H50.8334ZM30.5 33.0415C27.7042 33.0415 25.4167 30.754 25.4167 27.9582C25.4167 25.1623 27.7042 22.8748 30.5 22.8748C33.2959 22.8748 35.5834 25.1623 35.5834 27.9582C35.5834 30.754 33.2959 33.0415 30.5 33.0415ZM35.5834 8.26025V13.5469C34.0075 12.9878 32.2792 12.7082 30.5 12.7082C21.9854 12.7082 15.25 19.2403 15.25 28.4665C15.25 34.414 20.2063 42.2932 30.5 51.6973C40.7938 42.2932 45.75 34.4394 45.75 28.4665C45.75 27.4244 45.6738 26.4078 45.4958 25.4165H50.63C50.7571 26.4078 50.8334 27.4244 50.8334 28.4665C50.8334 36.9048 44.0471 46.8936 30.5 58.4582C16.9529 46.8936 10.1667 36.9048 10.1667 28.4665C10.1667 15.809 19.825 7.62484 30.5 7.62484C32.2284 7.62484 33.9313 7.82817 35.5834 8.26025Z" fill="black"/>
</svg>