<svg xmlns="http://www.w3.org/2000/svg" width="49" height="57" viewBox="0 0 49 57" fill="gray">
<path d="M40.8334 0.541748V8.16675H48.4584V13.2501H40.8334V20.8751H35.75V13.2501H28.125V8.16675H35.75V0.541748H40.8334ZM20.5 31.0417C17.7042 31.0417 15.4167 28.7542 15.4167 25.9584C15.4167 23.1626 17.7042 20.8751 20.5 20.8751C23.2959 20.8751 25.5834 23.1626 25.5834 25.9584C25.5834 28.7542 23.2959 31.0417 20.5 31.0417ZM25.5834 6.2605V11.5472C24.0075 10.988 22.2792 10.7084 20.5 10.7084C11.9854 10.7084 5.25002 17.2405 5.25002 26.4667C5.25002 32.4142 10.2063 40.2934 20.5 49.6976C30.7938 40.2934 35.75 32.4397 35.75 26.4667C35.75 25.4247 35.6738 24.408 35.4958 23.4167H40.63C40.7571 24.408 40.8334 25.4247 40.8334 26.4667C40.8334 34.9051 34.0471 44.8938 20.5 56.4584C6.95294 44.8938 0.166687 34.9051 0.166687 26.4667C0.166687 13.8092 9.82502 5.62508 20.5 5.62508C22.2284 5.62508 23.9313 5.82841 25.5834 6.2605Z" fill="black"/>
</svg>