<svg xmlns="http://www.w3.org/2000/svg" width="24" height="30" viewBox="0 0 24 30" fill="none">
<path d="M12 7.27109C13.1 7.27109 14 8.36174 14 9.69476C14 11.0278 13.1 12.1184 12 12.1184C10.9 12.1184 10 11.0278 10 9.69476C10 8.36174 10.9 7.27109 12 7.27109ZM12 19.3895C14.7 19.3895 17.8 20.9527 18 21.8131H6C6.23 20.9406 9.31 19.3895 12 19.3895ZM12 4.84741C9.79 4.84741 8 7.0166 8 9.69476C8 12.3729 9.79 14.5421 12 14.5421C14.21 14.5421 16 12.3729 16 9.69476C16 7.0166 14.21 4.84741 12 4.84741ZM12 16.9658C9.33 16.9658 4 18.5896 4 21.8131V24.2368H20V21.8131C20 18.5896 14.67 16.9658 12 16.9658Z" fill="black"/>
</svg>